<svg width="20" height="16" viewBox="0 0 20 16" fill="none" xmlns="http://www.w3.org/2000/svg">
<path d="M12.9219 0.5C13.2698 0.500185 13.5517 0.805221 13.5518 1.18164V1.86328H16.2393C16.4775 1.86328 16.6956 2.00903 16.8027 2.23926L18.6934 6.30664H18.6924L19.8691 7.94531C19.9548 8.06475 20.0009 8.21205 20.001 8.36328V12.7959C20.0007 13.1723 19.7191 13.4775 19.3711 13.4775H17.5381C17.25 14.6405 16.2704 15.5 15.1055 15.5C13.9408 15.4999 12.9609 14.6405 12.6729 13.4775H8.92481C8.63671 14.6405 7.65688 15.5 6.4922 15.5C5.32756 15.4999 4.34764 14.6405 4.05958 13.4775H2.417C2.0692 13.4773 1.78732 13.1722 1.78712 12.7959C1.78712 12.4195 2.06904 12.1135 2.417 12.1133H4.04884C4.32235 10.9274 5.31252 10.046 6.4922 10.0459C7.67193 10.0459 8.662 10.9274 8.93555 12.1133H12.6621C12.9356 10.9274 13.9258 10.046 15.1055 10.0459C16.2852 10.0459 17.2753 10.9274 17.5488 12.1133H18.7412V8.59766L17.8232 7.31836H12.9219C12.5739 7.31836 12.2912 7.01317 12.291 6.63672V1.86328H2.417C2.06908 1.86307 1.78712 1.55808 1.78712 1.18164C1.7872 0.805277 2.06909 0.500208 2.417 0.5H12.9219ZM6.4922 11.4092C5.79723 11.4093 5.23163 12.0207 5.23145 12.7725C5.23145 13.5244 5.79712 14.1366 6.4922 14.1367C7.18735 14.1367 7.75294 13.5245 7.75294 12.7725C7.75276 12.0206 7.18705 11.4092 6.4922 11.4092ZM15.1055 11.4092C14.4105 11.4093 13.8449 12.0206 13.8447 12.7725C13.8447 13.5244 14.4104 14.1366 15.1055 14.1367C15.8006 14.1367 16.3662 13.5245 16.3662 12.7725C16.366 12.0206 15.8005 11.4092 15.1055 11.4092ZM4.55762 8.65918C4.90566 8.65918 5.18844 8.96433 5.18848 9.34082C5.18848 9.71739 4.90575 10.0225 4.55762 10.0225H1.65919C1.3111 10.0225 1.02833 9.71743 1.02833 9.34082C1.02841 8.96433 1.31111 8.65918 1.65919 8.65918H4.55762ZM6.0088 5.97754C6.35674 5.97777 6.63868 6.28275 6.63868 6.65918C6.63858 7.03552 6.35668 7.34059 6.0088 7.34082H0.62989C0.282028 7.34061 0.000103017 7.03557 7.62939e-06 6.65918C7.62939e-06 6.2827 0.281969 5.97775 0.62989 5.97754H6.0088ZM13.5518 5.9541H17.1172L15.8506 3.22754H13.5518V5.9541ZM7.03712 3.2959C7.38521 3.29594 7.66704 3.60099 7.667 3.97754C7.66691 4.35401 7.38516 4.65914 7.03712 4.65918H1.65919C1.31115 4.65918 1.02841 4.35407 1.02833 3.97754C1.02833 3.60097 1.31106 3.2959 1.65919 3.2959H7.03712Z" fill="#569A00"/>
</svg>
