<svg width="24" height="24" viewBox="0 0 24 24" fill="none" xmlns="http://www.w3.org/2000/svg">
<path d="M19.2161 6.18521C19.4831 5.82462 19.429 5.28694 19.0711 4.92896C18.6805 4.53844 18.0762 4.50966 17.7211 4.86468L12 10.5858L6.27886 4.86468L6.18518 4.7839C5.82459 4.51696 5.28691 4.57098 4.92893 4.92896C4.5384 5.31948 4.50962 5.92387 4.86465 6.27889L10.5858 12L4.86465 17.7212L4.78387 17.8148C4.51693 18.1754 4.57095 18.7131 4.92893 19.0711C5.31945 19.4616 5.92384 19.4904 6.27886 19.1354L12 13.4142L17.7211 19.1354L17.8148 19.2162C18.1754 19.4831 18.7131 19.4291 19.0711 19.0711C19.4616 18.6806 19.4904 18.0762 19.1353 17.7212L13.4142 12L19.1353 6.27889L19.2161 6.18521Z" fill="white"/>
</svg>
