<svg width="16" height="16" viewBox="0 0 16 16" fill="none" xmlns="http://www.w3.org/2000/svg">
<path d="M8.00006 0C3.58166 0 6.10352e-05 3.5814 6.10352e-05 8C6.10352e-05 12.4186 3.58166 16 8.00006 16C12.4181 16 16.0001 12.4186 16.0001 8C16.0001 3.5814 12.4181 0 8.00006 0ZM5.96146 7.5426L6.16726 12.5C6.16705 12.7211 6.07909 12.933 5.92272 13.0893C5.76634 13.2455 5.55433 13.3333 5.33326 13.3334C5.1121 13.333 4.90013 13.2449 4.74386 13.0884C4.58759 12.9319 4.49977 12.7198 4.49966 12.4986L4.70686 7.5434C4.09706 7.2958 3.66626 6.6992 3.66666 6C3.66666 4.1592 4.41346 2.667 5.33326 2.6664C6.25366 2.667 6.99906 4.1584 7.00006 6.0004C7.00006 6.698 6.57006 7.2944 5.96146 7.5426ZM12.3327 5.6672C12.3341 6.3652 11.9037 6.9624 11.2945 7.2098L11.5001 12.168C11.5001 12.6264 11.1285 13.0014 10.6681 13.0014C10.2077 13.0014 9.83326 12.6276 9.83266 12.168L10.0397 7.209C9.73249 7.08489 9.46944 6.87178 9.2843 6.59704C9.09916 6.32231 9.00038 5.9985 9.00066 5.6672L9.00006 3.0006L9.66666 3.0002L9.83326 5.6672H10.3333L10.3341 3L11.0009 2.9994L11.0001 5.6672H11.5001L11.6669 3.0002H12.3335L12.3327 5.6672Z" fill="white"/>
</svg>
