<svg width="20" height="20" viewBox="0 0 20 20" fill="none" xmlns="http://www.w3.org/2000/svg">
<path d="M18.3245 11.6845C17.6393 10.7889 16.6024 10.3349 15.2426 10.3349C13.6682 10.3349 12.2034 11.0372 11.2264 12.2376C10.5669 11.876 9.82948 11.687 9.06444 11.687C8.19944 11.687 7.35091 11.9378 6.62923 12.4005C6.70976 10.9193 6.64993 8.56479 5.77437 6.45117C6.02356 6.18457 6.53265 5.78692 7.23533 5.97448C7.80636 6.12695 8.41245 5.95099 8.81708 5.51542C9.62506 4.64597 9.86397 3.6284 9.48976 2.65013C8.89634 1.09895 7.83255 0.846336 7.25123 0.833887C6.48633 0.817942 5.62007 1.17406 4.81124 1.83803C4.09548 2.42578 3.50121 3.18668 3.18106 3.92591C2.68802 5.06405 2.00196 8.0709 1.54074 10.5459C1.17849 12.4899 0.616186 15.8994 0.920428 16.8924C0.983642 17.0987 1.16202 17.2498 1.37728 17.2788C1.39502 17.2812 3.19077 17.5324 5.47013 18.5434C6.34878 18.9331 8.08498 19.1667 9.97534 19.1667C10.2962 19.1667 10.6217 19.16 10.9479 19.1461C12.5226 19.0794 15.4499 18.7833 17.3619 17.551C18.5426 16.7903 19.1667 15.76 19.1667 14.5719C19.1667 13.4028 18.8754 12.4044 18.3245 11.6845ZM16.7568 16.6242C13.8331 18.5085 7.49635 18.2324 5.92346 17.5347C4.13856 16.743 2.641 16.3907 1.9441 16.2558C1.91186 15.484 2.10051 13.6101 2.6341 10.7471C3.15783 7.93634 3.81742 5.25134 4.20233 4.36259C4.69213 3.23228 6.10001 1.9379 7.19759 1.9379C7.20745 1.9379 7.21744 1.93804 7.22716 1.93832C7.42694 1.94252 8.03458 1.95567 8.45032 3.04262C8.67305 3.6249 8.52156 4.20482 8.00008 4.76613C7.87858 4.89677 7.69176 4.95244 7.5238 4.90754C6.08213 4.52261 5.02087 5.50409 4.66102 6.07673C4.56233 6.23395 4.54952 6.42977 4.62681 6.59832C5.89911 9.37073 5.49829 12.8744 5.40142 13.5708C5.0579 14.053 4.8111 14.601 4.68228 15.1805C4.61611 15.4784 4.80547 15.7733 5.10535 15.839C5.40522 15.9046 5.70186 15.7166 5.76803 15.4187C6.10635 13.8964 7.49269 12.7917 9.06444 12.7917C9.78077 12.7917 10.465 13.0119 11.0431 13.4283C11.0459 13.4303 11.0488 13.4318 11.0517 13.4338C11.0545 13.4357 11.0572 13.4381 11.0601 13.44C11.4459 13.6966 11.9447 14.3246 12.1042 14.5448C12.2127 14.695 12.3832 14.7748 12.5561 14.7748C12.6685 14.7748 12.7818 14.7413 12.8801 14.6712C13.1294 14.4931 13.1864 14.1481 13.0072 13.9002C12.954 13.8265 12.5772 13.313 12.1278 12.888C12.8947 11.9733 14.0269 11.4396 15.2426 11.4396C17.5668 11.4396 18.0547 13.143 18.0547 14.5719C18.0547 15.3901 17.6301 16.0614 16.7568 16.6242Z" fill="#569A00"/>
</svg>
