<svg width="18" height="16" viewBox="0 0 18 16" fill="none" xmlns="http://www.w3.org/2000/svg">
<path d="M4.40326 0.345581C5.86739 -0.125143 7.45167 0.0446434 8.77728 0.796753L8.99701 0.928589L9.22064 0.795776C10.4776 0.0842346 11.9689 -0.105766 13.372 0.280151L13.5937 0.345581C16.654 1.33099 18.0243 4.67356 16.9951 7.87097C16.4789 9.35814 15.6318 10.7068 14.5146 11.8182C12.9941 13.2949 11.3178 14.5995 9.51849 15.7059L9.32709 15.8241C9.13319 15.9446 8.88823 15.9471 8.69232 15.83L8.48724 15.7069C6.68545 14.5989 5.00903 13.2951 3.48334 11.8134C2.37115 10.7069 1.52437 9.35774 1.00385 7.8573C-0.0215863 4.67096 1.34379 1.33059 4.40326 0.345581ZM13.2206 1.50476C11.9068 1.08325 10.4715 1.32562 9.36322 2.15515C9.15049 2.31415 8.85947 2.31659 8.64349 2.16199L8.47943 2.0448C7.3928 1.30208 6.02768 1.10235 4.77631 1.50476C2.40643 2.26782 1.332 4.8981 2.1601 7.47156C2.61566 8.78434 3.36322 9.97457 4.33881 10.9452C5.76123 12.3266 7.3269 13.5483 9.00092 14.5897L9.39154 14.3456C10.7524 13.4669 12.0344 12.4695 13.2197 11.368L13.6601 10.9501C14.6408 9.97437 15.3876 8.78388 15.8388 7.48425C16.6702 4.9004 15.5916 2.26827 13.2206 1.50476ZM11.4589 3.79773C11.5614 3.47743 11.9049 3.30087 12.2255 3.4032C13.3266 3.75476 14.1076 4.74112 14.205 5.89929C14.2329 6.23423 13.9836 6.52836 13.6484 6.55652C13.313 6.58464 13.0184 6.33596 12.9902 6.00085C12.9339 5.3318 12.4846 4.76454 11.8544 4.56335C11.5338 4.46101 11.3565 4.11811 11.4589 3.79773Z" fill="#569A00"/>
</svg>
