<svg width="90" height="29" viewBox="0 0 90 29" fill="none" xmlns="http://www.w3.org/2000/svg">
<path d="M47.064 28.2673H53.3696V16.926H66.8477V11.4493H53.3696V5.62821H67.1472V0.151491H47.064V28.2673Z" fill="#6CC100"/>
<path d="M73.9715 0.151491H68.223V5.6349H73.9715V0.151491Z" fill="#6CC100"/>
<path d="M42.6489 10.4898C41.6588 9.52295 40.4742 8.75962 39.1671 8.24629C37.7525 7.69374 36.2374 7.41754 34.7104 7.43381C33.1689 7.42058 31.6396 7.69657 30.2083 8.24629C28.8791 8.75695 27.6703 9.51874 26.6534 10.4865C25.651 11.4573 24.8634 12.6128 24.338 13.8835C23.7856 15.2254 23.5066 16.6567 23.5163 18.0997C23.5039 19.5622 23.7988 21.0121 24.3832 22.3627C24.9336 23.6398 25.7467 24.7971 26.774 25.7652C27.8013 26.7333 29.0215 27.4922 30.3615 27.9966C31.8149 28.5453 33.3647 28.82 34.9262 28.8057C37.1755 28.8096 39.3764 28.1795 41.2562 26.9935C42.1761 26.4126 42.998 25.7 43.6935 24.8804C44.3951 24.0434 44.9576 23.1073 45.3613 22.1053L45.5354 21.6739H39L38.9025 21.7943C38.4702 22.3402 37.886 22.7575 37.2173 22.998C36.4873 23.251 35.7162 23.3766 34.9402 23.3691C33.753 23.3948 32.5886 23.0538 31.6185 22.3962C30.8205 21.8443 30.2314 21.0579 29.9402 20.156H45.5632L45.6085 19.8885C45.6655 19.5715 45.6958 19.2506 45.699 18.9289V18.0161C45.7084 16.596 45.4378 15.187 44.9017 13.8634C44.3889 12.6077 43.6234 11.4613 42.6489 10.4898ZM30.0308 15.6288C30.2436 14.757 30.7922 13.9949 31.5663 13.4956C32.4846 12.8644 33.588 12.5296 34.7173 12.5394C35.8149 12.5119 36.8903 12.8392 37.7709 13.4689C38.5048 13.9967 39.0106 14.7656 39.1915 15.6288H30.0308Z" fill="#6CC100"/>
<path d="M22.4543 11.8907C23.0428 10.7907 23.344 9.56981 23.3317 8.33319C23.3369 7.24669 23.1327 6.16863 22.7294 5.15348C22.3311 4.15983 21.7065 3.26423 20.9014 2.53215C20.013 1.75709 18.9692 1.16434 17.8339 0.790169C16.4299 0.338291 14.9552 0.122254 13.4747 0.151552H0V5.62827H12.9141C14.2198 5.62827 15.2504 5.87903 15.9781 6.37722C16.7058 6.87541 17.0227 7.57755 17.0227 8.58061C17.0477 8.9955 16.9628 9.40972 16.7759 9.78453C16.589 10.1593 16.3061 10.4825 15.9537 10.7238C15.2086 11.232 14.185 11.4895 12.9106 11.4895H6.29515V5.82889C4.69139 6.18299 3.23476 6.99003 2.11282 8.14607C0.990875 9.30211 0.255014 10.7542 0 12.3154V28.2707H13.4747C14.9552 28.3 16.4299 28.084 17.8339 27.6321C18.9701 27.2581 20.0142 26.6641 20.9014 25.8868C21.7073 25.1554 22.332 24.2596 22.7294 23.2654C23.1327 22.2514 23.3369 21.1745 23.3317 20.0891C23.3441 18.8503 23.043 17.6272 22.4543 16.5249C21.9492 15.5925 21.2096 14.796 20.3026 14.2078C21.2104 13.6205 21.9502 12.8238 22.4543 11.8907ZM15.9607 22.0384C15.2156 22.5365 14.1919 22.7907 12.9141 22.7907H6.29863V16.9696H12.9141C14.2198 16.9696 15.2504 17.2203 15.9781 17.7152C16.7058 18.21 17.0227 18.9155 17.0227 19.9219C17.05 20.3326 16.9667 20.7431 16.7806 21.1138C16.5946 21.4846 16.3122 21.803 15.9607 22.0384Z" fill="#6CC100"/>
<path d="M83.5849 7.96873V3.54522H77.4952V7.96873H68.2091V28.264H74.3023V13.1612H89.793V7.96873H83.5849Z" fill="#6CC100"/>
<path d="M84.0827 22.5166C83.7375 22.0656 83.5641 21.5143 83.5918 20.9551V13.3887C82.0999 13.7373 80.7389 14.4788 79.6619 15.5296C78.5848 16.5804 77.8345 17.8989 77.4951 19.3369V21.7877C77.4675 22.6651 77.638 23.5378 77.995 24.3458C78.352 25.1539 78.8871 25.8781 79.5633 26.4686C80.9282 27.6623 82.9511 28.2675 85.5834 28.2675H89.7929V23.0816H85.6147C84.894 23.0816 84.3856 22.8944 84.0827 22.5166Z" fill="#6CC100"/>
</svg>
