<svg width="15" height="14" viewBox="0 0 15 14" fill="none" xmlns="http://www.w3.org/2000/svg">
<path d="M0 7C0 6.64986 0.256287 6.36047 0.588867 6.31445L0.681641 6.30762L12.667 6.30762L8.33691 1.93262C8.07018 1.66309 8.06958 1.22492 8.33496 0.954102C8.57646 0.707958 8.95532 0.684458 9.22266 0.884766L9.2998 0.951172L14.7998 6.50879C14.8311 6.54038 14.8569 6.57566 14.8809 6.61133C14.8867 6.62005 14.891 6.62967 14.8965 6.63867C14.9139 6.6674 14.9304 6.69607 14.9434 6.72656C14.9479 6.73736 14.951 6.74869 14.9551 6.75977C14.9654 6.78813 14.9749 6.81644 14.9814 6.8457C14.9856 6.86397 14.9876 6.88258 14.9902 6.90137C14.9938 6.92643 14.9962 6.95131 14.9971 6.97656C14.9973 6.98435 15 6.99215 15 7C15 7.0125 14.9967 7.02477 14.9961 7.03711C14.995 7.05841 14.9933 7.07945 14.9902 7.10059C14.9874 7.12046 14.984 7.1399 14.9795 7.15918C14.9748 7.17928 14.9694 7.19905 14.9629 7.21875C14.956 7.23977 14.9483 7.2602 14.9395 7.28027C14.932 7.2972 14.9239 7.31368 14.915 7.33008C14.9051 7.34858 14.8943 7.36636 14.8828 7.38379C14.8768 7.39287 14.8727 7.40327 14.8662 7.41211L14.8408 7.44141C14.8333 7.45055 14.8263 7.46002 14.8184 7.46875L14.7998 7.49023L9.2998 13.0488C9.03298 13.3184 8.60065 13.3166 8.33496 13.0459C8.09373 12.7997 8.07298 12.4158 8.27148 12.1455L8.33691 12.0674L12.666 7.69141L0.681641 7.69141C0.305188 7.69131 3.73265e-05 7.38205 0 7Z" fill="white"/>
</svg>
